<mxfile host="app.diagrams.net" agent="Mozilla/5.0 (Windows NT 10.0; Win64; x64) AppleWebKit/537.36 (KHTML, like Gecko) Chrome/131.0.0.0 Safari/537.36" version="25.0.3">
  <diagram name="Page-1" id="oWXQQKSHPPJXY9G6SAKG">
    <mxGraphModel dx="2537" dy="2008" grid="1" gridSize="10" guides="1" tooltips="1" connect="1" arrows="1" fold="1" page="1" pageScale="1" pageWidth="850" pageHeight="1100" math="0" shadow="0">
      <root>
        <mxCell id="0" />
        <mxCell id="1" parent="0" />
        <mxCell id="g07h73ZPgxgVqOZMdDho-127" value="" style="rounded=0;whiteSpace=wrap;html=1;" vertex="1" parent="1">
          <mxGeometry x="-65" y="-160" width="1145" height="650" as="geometry" />
        </mxCell>
        <mxCell id="g07h73ZPgxgVqOZMdDho-126" value="" style="rounded=0;whiteSpace=wrap;html=1;strokeWidth=2;" vertex="1" parent="1">
          <mxGeometry x="542" y="110" width="200" height="250" as="geometry" />
        </mxCell>
        <mxCell id="g07h73ZPgxgVqOZMdDho-125" value="" style="rounded=0;whiteSpace=wrap;html=1;strokeWidth=2;" vertex="1" parent="1">
          <mxGeometry x="290" y="110" width="200" height="250" as="geometry" />
        </mxCell>
        <mxCell id="g07h73ZPgxgVqOZMdDho-12" value="" style="rounded=0;whiteSpace=wrap;html=1;strokeWidth=2;" vertex="1" parent="1">
          <mxGeometry x="-23" y="110" width="200" height="250" as="geometry" />
        </mxCell>
        <mxCell id="g07h73ZPgxgVqOZMdDho-9" style="edgeStyle=orthogonalEdgeStyle;rounded=0;orthogonalLoop=1;jettySize=auto;html=1;exitX=0;exitY=0.5;exitDx=0;exitDy=0;entryX=0.5;entryY=0;entryDx=0;entryDy=0;curved=1;" edge="1" parent="1" source="g07h73ZPgxgVqOZMdDho-1" target="g07h73ZPgxgVqOZMdDho-3">
          <mxGeometry relative="1" as="geometry" />
        </mxCell>
        <mxCell id="g07h73ZPgxgVqOZMdDho-1" value="" style="rounded=1;whiteSpace=wrap;html=1;arcSize=50;" vertex="1" parent="1">
          <mxGeometry x="77" y="160" width="80" height="40" as="geometry" />
        </mxCell>
        <mxCell id="g07h73ZPgxgVqOZMdDho-2" value="" style="endArrow=classic;html=1;rounded=0;entryX=0;entryY=0.25;entryDx=0;entryDy=0;startArrow=oval;startFill=1;" edge="1" parent="1" target="g07h73ZPgxgVqOZMdDho-1">
          <mxGeometry width="50" height="50" relative="1" as="geometry">
            <mxPoint x="7" y="170" as="sourcePoint" />
            <mxPoint x="417" y="170" as="targetPoint" />
          </mxGeometry>
        </mxCell>
        <mxCell id="g07h73ZPgxgVqOZMdDho-6" value="" style="edgeStyle=orthogonalEdgeStyle;rounded=0;orthogonalLoop=1;jettySize=auto;html=1;exitX=1;exitY=0.25;exitDx=0;exitDy=0;curved=1;entryX=0.25;entryY=1;entryDx=0;entryDy=0;" edge="1" parent="1" source="g07h73ZPgxgVqOZMdDho-3" target="g07h73ZPgxgVqOZMdDho-1">
          <mxGeometry relative="1" as="geometry" />
        </mxCell>
        <mxCell id="g07h73ZPgxgVqOZMdDho-7" style="edgeStyle=orthogonalEdgeStyle;rounded=0;orthogonalLoop=1;jettySize=auto;html=1;exitX=1;exitY=0.75;exitDx=0;exitDy=0;entryX=0.75;entryY=0;entryDx=0;entryDy=0;curved=1;" edge="1" parent="1" source="g07h73ZPgxgVqOZMdDho-3" target="g07h73ZPgxgVqOZMdDho-4">
          <mxGeometry relative="1" as="geometry" />
        </mxCell>
        <mxCell id="g07h73ZPgxgVqOZMdDho-3" value="" style="rounded=1;whiteSpace=wrap;html=1;arcSize=50;" vertex="1" parent="1">
          <mxGeometry x="-13" y="220" width="80" height="40" as="geometry" />
        </mxCell>
        <mxCell id="g07h73ZPgxgVqOZMdDho-10" style="edgeStyle=orthogonalEdgeStyle;rounded=0;orthogonalLoop=1;jettySize=auto;html=1;exitX=1;exitY=0.5;exitDx=0;exitDy=0;entryX=0.75;entryY=1;entryDx=0;entryDy=0;curved=1;" edge="1" parent="1" source="g07h73ZPgxgVqOZMdDho-4" target="g07h73ZPgxgVqOZMdDho-1">
          <mxGeometry relative="1" as="geometry" />
        </mxCell>
        <mxCell id="g07h73ZPgxgVqOZMdDho-4" value="" style="rounded=1;whiteSpace=wrap;html=1;arcSize=50;" vertex="1" parent="1">
          <mxGeometry x="27" y="290" width="80" height="40" as="geometry" />
        </mxCell>
        <mxCell id="g07h73ZPgxgVqOZMdDho-8" style="edgeStyle=orthogonalEdgeStyle;rounded=0;orthogonalLoop=1;jettySize=auto;html=1;exitX=0;exitY=0.5;exitDx=0;exitDy=0;entryX=0.242;entryY=1.086;entryDx=0;entryDy=0;entryPerimeter=0;curved=1;" edge="1" parent="1" source="g07h73ZPgxgVqOZMdDho-4" target="g07h73ZPgxgVqOZMdDho-3">
          <mxGeometry relative="1" as="geometry" />
        </mxCell>
        <mxCell id="g07h73ZPgxgVqOZMdDho-14" style="edgeStyle=orthogonalEdgeStyle;rounded=0;orthogonalLoop=1;jettySize=auto;html=1;exitX=0.25;exitY=0;exitDx=0;exitDy=0;startArrow=classic;startFill=1;endArrow=oval;endFill=1;" edge="1" parent="1" source="g07h73ZPgxgVqOZMdDho-13">
          <mxGeometry relative="1" as="geometry">
            <mxPoint x="330" y="200" as="targetPoint" />
          </mxGeometry>
        </mxCell>
        <mxCell id="g07h73ZPgxgVqOZMdDho-17" style="edgeStyle=orthogonalEdgeStyle;rounded=0;orthogonalLoop=1;jettySize=auto;html=1;exitX=1;exitY=0.5;exitDx=0;exitDy=0;entryX=0.5;entryY=1;entryDx=0;entryDy=0;curved=1;" edge="1" parent="1" source="g07h73ZPgxgVqOZMdDho-13" target="g07h73ZPgxgVqOZMdDho-15">
          <mxGeometry relative="1" as="geometry" />
        </mxCell>
        <mxCell id="g07h73ZPgxgVqOZMdDho-13" value="" style="rounded=1;whiteSpace=wrap;html=1;arcSize=50;" vertex="1" parent="1">
          <mxGeometry x="310" y="230" width="80" height="40" as="geometry" />
        </mxCell>
        <mxCell id="g07h73ZPgxgVqOZMdDho-18" style="edgeStyle=orthogonalEdgeStyle;rounded=0;orthogonalLoop=1;jettySize=auto;html=1;exitX=0;exitY=0.5;exitDx=0;exitDy=0;entryX=0.75;entryY=0;entryDx=0;entryDy=0;curved=1;" edge="1" parent="1" source="g07h73ZPgxgVqOZMdDho-15" target="g07h73ZPgxgVqOZMdDho-13">
          <mxGeometry relative="1" as="geometry" />
        </mxCell>
        <mxCell id="g07h73ZPgxgVqOZMdDho-15" value="" style="rounded=1;whiteSpace=wrap;html=1;arcSize=50;" vertex="1" parent="1">
          <mxGeometry x="390" y="180" width="80" height="40" as="geometry" />
        </mxCell>
        <mxCell id="g07h73ZPgxgVqOZMdDho-27" style="edgeStyle=orthogonalEdgeStyle;rounded=0;orthogonalLoop=1;jettySize=auto;html=1;exitX=0.25;exitY=0;exitDx=0;exitDy=0;startArrow=classic;startFill=1;endArrow=oval;endFill=1;" edge="1" parent="1" source="g07h73ZPgxgVqOZMdDho-19">
          <mxGeometry relative="1" as="geometry">
            <mxPoint x="585" y="193" as="targetPoint" />
          </mxGeometry>
        </mxCell>
        <mxCell id="g07h73ZPgxgVqOZMdDho-29" style="edgeStyle=orthogonalEdgeStyle;rounded=0;orthogonalLoop=1;jettySize=auto;html=1;exitX=1;exitY=0.25;exitDx=0;exitDy=0;entryX=0.5;entryY=1;entryDx=0;entryDy=0;curved=1;" edge="1" parent="1" source="g07h73ZPgxgVqOZMdDho-19" target="g07h73ZPgxgVqOZMdDho-26">
          <mxGeometry relative="1" as="geometry">
            <Array as="points">
              <mxPoint x="700" y="256" />
            </Array>
          </mxGeometry>
        </mxCell>
        <mxCell id="g07h73ZPgxgVqOZMdDho-19" value="" style="rounded=1;whiteSpace=wrap;html=1;" vertex="1" parent="1">
          <mxGeometry x="550" y="223" width="140" height="130" as="geometry" />
        </mxCell>
        <mxCell id="g07h73ZPgxgVqOZMdDho-20" value="" style="rounded=1;whiteSpace=wrap;html=1;arcSize=50;" vertex="1" parent="1">
          <mxGeometry x="580" y="233" width="80" height="40" as="geometry" />
        </mxCell>
        <mxCell id="g07h73ZPgxgVqOZMdDho-23" style="edgeStyle=orthogonalEdgeStyle;rounded=0;orthogonalLoop=1;jettySize=auto;html=1;exitX=0.25;exitY=0;exitDx=0;exitDy=0;startArrow=classic;startFill=1;endArrow=oval;endFill=1;curved=1;" edge="1" parent="1" source="g07h73ZPgxgVqOZMdDho-22">
          <mxGeometry relative="1" as="geometry">
            <mxPoint x="559.9999999999998" y="283.0000000000002" as="targetPoint" />
          </mxGeometry>
        </mxCell>
        <mxCell id="g07h73ZPgxgVqOZMdDho-22" value="" style="rounded=1;whiteSpace=wrap;html=1;arcSize=50;" vertex="1" parent="1">
          <mxGeometry x="580" y="303" width="80" height="40" as="geometry" />
        </mxCell>
        <mxCell id="g07h73ZPgxgVqOZMdDho-24" style="edgeStyle=orthogonalEdgeStyle;rounded=0;orthogonalLoop=1;jettySize=auto;html=1;exitX=0.5;exitY=1;exitDx=0;exitDy=0;" edge="1" parent="1" source="g07h73ZPgxgVqOZMdDho-20">
          <mxGeometry relative="1" as="geometry">
            <mxPoint x="620" y="303" as="targetPoint" />
          </mxGeometry>
        </mxCell>
        <mxCell id="g07h73ZPgxgVqOZMdDho-25" style="edgeStyle=orthogonalEdgeStyle;rounded=0;orthogonalLoop=1;jettySize=auto;html=1;exitX=1;exitY=0.5;exitDx=0;exitDy=0;entryX=0.75;entryY=1;entryDx=0;entryDy=0;curved=1;" edge="1" parent="1" source="g07h73ZPgxgVqOZMdDho-19" target="g07h73ZPgxgVqOZMdDho-20">
          <mxGeometry relative="1" as="geometry">
            <Array as="points">
              <mxPoint x="690" y="293" />
              <mxPoint x="640" y="293" />
            </Array>
          </mxGeometry>
        </mxCell>
        <mxCell id="g07h73ZPgxgVqOZMdDho-28" style="edgeStyle=orthogonalEdgeStyle;rounded=0;orthogonalLoop=1;jettySize=auto;html=1;exitX=0;exitY=0.5;exitDx=0;exitDy=0;entryX=0.5;entryY=0;entryDx=0;entryDy=0;curved=1;" edge="1" parent="1" source="g07h73ZPgxgVqOZMdDho-26" target="g07h73ZPgxgVqOZMdDho-19">
          <mxGeometry relative="1" as="geometry" />
        </mxCell>
        <mxCell id="g07h73ZPgxgVqOZMdDho-26" value="" style="rounded=1;whiteSpace=wrap;html=1;arcSize=50;" vertex="1" parent="1">
          <mxGeometry x="660" y="173" width="80" height="40" as="geometry" />
        </mxCell>
        <mxCell id="g07h73ZPgxgVqOZMdDho-30" value="" style="ellipse;shape=umlControl;whiteSpace=wrap;html=1;strokeWidth=2;" vertex="1" parent="1">
          <mxGeometry x="137" y="320" width="30" height="30" as="geometry" />
        </mxCell>
        <mxCell id="g07h73ZPgxgVqOZMdDho-31" value="" style="ellipse;shape=umlControl;whiteSpace=wrap;html=1;strokeWidth=2;" vertex="1" parent="1">
          <mxGeometry x="448" y="320" width="30" height="30" as="geometry" />
        </mxCell>
        <mxCell id="g07h73ZPgxgVqOZMdDho-32" value="" style="ellipse;shape=umlControl;whiteSpace=wrap;html=1;strokeWidth=2;" vertex="1" parent="1">
          <mxGeometry x="701" y="320" width="30" height="30" as="geometry" />
        </mxCell>
        <mxCell id="g07h73ZPgxgVqOZMdDho-37" value="" style="endArrow=none;dashed=1;html=1;strokeWidth=3;rounded=0;" edge="1" parent="1">
          <mxGeometry width="50" height="50" relative="1" as="geometry">
            <mxPoint x="202" y="240" as="sourcePoint" />
            <mxPoint x="272" y="240" as="targetPoint" />
          </mxGeometry>
        </mxCell>
        <mxCell id="g07h73ZPgxgVqOZMdDho-39" value="" style="endArrow=none;html=1;rounded=0;" edge="1" parent="1">
          <mxGeometry width="50" height="50" relative="1" as="geometry">
            <mxPoint x="37" y="90" as="sourcePoint" />
            <mxPoint x="117" y="90" as="targetPoint" />
          </mxGeometry>
        </mxCell>
        <mxCell id="g07h73ZPgxgVqOZMdDho-41" value="" style="rounded=0;whiteSpace=wrap;html=1;" vertex="1" parent="1">
          <mxGeometry x="52" y="90" width="50" height="10" as="geometry" />
        </mxCell>
        <mxCell id="g07h73ZPgxgVqOZMdDho-42" value="" style="rounded=0;whiteSpace=wrap;html=1;" vertex="1" parent="1">
          <mxGeometry x="52" y="100" width="50" height="10" as="geometry" />
        </mxCell>
        <mxCell id="g07h73ZPgxgVqOZMdDho-43" value="" style="rounded=0;whiteSpace=wrap;html=1;fillColor=#bac8d3;strokeColor=#23445d;" vertex="1" parent="1">
          <mxGeometry x="52" y="110" width="50" height="10" as="geometry" />
        </mxCell>
        <mxCell id="g07h73ZPgxgVqOZMdDho-44" value="" style="rounded=0;whiteSpace=wrap;html=1;fillColor=#bac8d3;strokeColor=#23445d;" vertex="1" parent="1">
          <mxGeometry x="52" y="120" width="50" height="10" as="geometry" />
        </mxCell>
        <mxCell id="g07h73ZPgxgVqOZMdDho-45" value="" style="endArrow=none;html=1;rounded=0;" edge="1" parent="1">
          <mxGeometry width="50" height="50" relative="1" as="geometry">
            <mxPoint x="37" y="130" as="sourcePoint" />
            <mxPoint x="117" y="130" as="targetPoint" />
          </mxGeometry>
        </mxCell>
        <mxCell id="g07h73ZPgxgVqOZMdDho-58" value="" style="endArrow=none;html=1;rounded=0;" edge="1" parent="1">
          <mxGeometry width="50" height="50" relative="1" as="geometry">
            <mxPoint x="350" y="89.52" as="sourcePoint" />
            <mxPoint x="430" y="89.52" as="targetPoint" />
          </mxGeometry>
        </mxCell>
        <mxCell id="g07h73ZPgxgVqOZMdDho-59" value="" style="rounded=0;whiteSpace=wrap;html=1;" vertex="1" parent="1">
          <mxGeometry x="365" y="89.52" width="50" height="10" as="geometry" />
        </mxCell>
        <mxCell id="g07h73ZPgxgVqOZMdDho-60" value="" style="rounded=0;whiteSpace=wrap;html=1;" vertex="1" parent="1">
          <mxGeometry x="365" y="99.52" width="50" height="10" as="geometry" />
        </mxCell>
        <mxCell id="g07h73ZPgxgVqOZMdDho-61" value="" style="rounded=0;whiteSpace=wrap;html=1;" vertex="1" parent="1">
          <mxGeometry x="365" y="109.52" width="50" height="10" as="geometry" />
        </mxCell>
        <mxCell id="g07h73ZPgxgVqOZMdDho-62" value="" style="rounded=0;whiteSpace=wrap;html=1;fillColor=#bac8d3;strokeColor=#23445d;" vertex="1" parent="1">
          <mxGeometry x="365" y="119.52" width="50" height="10" as="geometry" />
        </mxCell>
        <mxCell id="g07h73ZPgxgVqOZMdDho-63" value="" style="endArrow=none;html=1;rounded=0;" edge="1" parent="1">
          <mxGeometry width="50" height="50" relative="1" as="geometry">
            <mxPoint x="350" y="129.52" as="sourcePoint" />
            <mxPoint x="430" y="129.52" as="targetPoint" />
          </mxGeometry>
        </mxCell>
        <mxCell id="g07h73ZPgxgVqOZMdDho-70" value="" style="endArrow=none;html=1;rounded=0;" edge="1" parent="1">
          <mxGeometry width="50" height="50" relative="1" as="geometry">
            <mxPoint x="600" y="90" as="sourcePoint" />
            <mxPoint x="680" y="90" as="targetPoint" />
          </mxGeometry>
        </mxCell>
        <mxCell id="g07h73ZPgxgVqOZMdDho-71" value="" style="rounded=0;whiteSpace=wrap;html=1;" vertex="1" parent="1">
          <mxGeometry x="615" y="90" width="50" height="10" as="geometry" />
        </mxCell>
        <mxCell id="g07h73ZPgxgVqOZMdDho-72" value="" style="rounded=0;whiteSpace=wrap;html=1;" vertex="1" parent="1">
          <mxGeometry x="615" y="100" width="50" height="10" as="geometry" />
        </mxCell>
        <mxCell id="g07h73ZPgxgVqOZMdDho-73" value="" style="rounded=0;whiteSpace=wrap;html=1;" vertex="1" parent="1">
          <mxGeometry x="615" y="110" width="50" height="10" as="geometry" />
        </mxCell>
        <mxCell id="g07h73ZPgxgVqOZMdDho-74" value="" style="rounded=0;whiteSpace=wrap;html=1;" vertex="1" parent="1">
          <mxGeometry x="615" y="119.99999999999999" width="50" height="10" as="geometry" />
        </mxCell>
        <mxCell id="g07h73ZPgxgVqOZMdDho-75" value="" style="endArrow=none;html=1;rounded=0;" edge="1" parent="1">
          <mxGeometry width="50" height="50" relative="1" as="geometry">
            <mxPoint x="600" y="130" as="sourcePoint" />
            <mxPoint x="680" y="130" as="targetPoint" />
          </mxGeometry>
        </mxCell>
        <mxCell id="g07h73ZPgxgVqOZMdDho-76" value="" style="curved=1;endArrow=classic;html=1;rounded=0;exitX=1;exitY=1;exitDx=0;exitDy=0;edgeStyle=orthogonalEdgeStyle;dashed=1;" edge="1" parent="1" source="g07h73ZPgxgVqOZMdDho-1">
          <mxGeometry width="50" height="50" relative="1" as="geometry">
            <mxPoint x="207" y="240" as="sourcePoint" />
            <mxPoint x="87" y="90" as="targetPoint" />
            <Array as="points">
              <mxPoint x="157" y="210" />
              <mxPoint x="227" y="210" />
              <mxPoint x="227" y="50" />
              <mxPoint x="87" y="50" />
            </Array>
          </mxGeometry>
        </mxCell>
        <mxCell id="g07h73ZPgxgVqOZMdDho-78" style="edgeStyle=orthogonalEdgeStyle;rounded=0;orthogonalLoop=1;jettySize=auto;html=1;exitX=0.5;exitY=1;exitDx=0;exitDy=0;entryX=0.25;entryY=0;entryDx=0;entryDy=0;curved=1;dashed=1;" edge="1" parent="1" source="g07h73ZPgxgVqOZMdDho-77" target="g07h73ZPgxgVqOZMdDho-41">
          <mxGeometry relative="1" as="geometry">
            <Array as="points">
              <mxPoint x="252" y="30" />
              <mxPoint x="65" y="30" />
            </Array>
          </mxGeometry>
        </mxCell>
        <mxCell id="g07h73ZPgxgVqOZMdDho-77" value="&lt;font style=&quot;font-size: 15px;&quot;&gt;&lt;b&gt;HAL&lt;/b&gt;&lt;/font&gt;" style="rounded=0;whiteSpace=wrap;html=1;" vertex="1" parent="1">
          <mxGeometry x="217" y="-30" width="70" height="30" as="geometry" />
        </mxCell>
        <mxCell id="g07h73ZPgxgVqOZMdDho-84" style="rounded=0;orthogonalLoop=1;jettySize=auto;html=1;exitX=0.5;exitY=1;exitDx=0;exitDy=0;exitPerimeter=0;endArrow=oval;endFill=0;dashed=1;dashPattern=8 8;" edge="1" parent="1" source="g07h73ZPgxgVqOZMdDho-80">
          <mxGeometry relative="1" as="geometry">
            <mxPoint x="227" y="110" as="targetPoint" />
          </mxGeometry>
        </mxCell>
        <mxCell id="g07h73ZPgxgVqOZMdDho-87" style="rounded=0;orthogonalLoop=1;jettySize=auto;html=1;exitX=0;exitY=0;exitDx=80;exitDy=23;exitPerimeter=0;endArrow=oval;endFill=0;dashed=1;" edge="1" parent="1" source="g07h73ZPgxgVqOZMdDho-80">
          <mxGeometry relative="1" as="geometry">
            <mxPoint x="380" y="55" as="targetPoint" />
          </mxGeometry>
        </mxCell>
        <mxCell id="g07h73ZPgxgVqOZMdDho-80" value="" style="shape=note2;boundedLbl=1;whiteSpace=wrap;html=1;size=16;verticalAlign=top;align=center;" vertex="1" parent="1">
          <mxGeometry x="237" y="40" width="80" height="30" as="geometry" />
        </mxCell>
        <mxCell id="g07h73ZPgxgVqOZMdDho-81" value="Events" style="resizeWidth=1;part=1;strokeColor=none;fillColor=none;align=center;spacingLeft=5;verticalAlign=middle;fontSize=15;fontStyle=1" vertex="1" parent="g07h73ZPgxgVqOZMdDho-80">
          <mxGeometry width="60" height="30" relative="1" as="geometry" />
        </mxCell>
        <mxCell id="g07h73ZPgxgVqOZMdDho-83" style="rounded=0;orthogonalLoop=1;jettySize=auto;html=1;exitX=0.5;exitY=0;exitDx=0;exitDy=0;dashed=1;endArrow=oval;endFill=0;" edge="1" parent="1" source="g07h73ZPgxgVqOZMdDho-81">
          <mxGeometry relative="1" as="geometry">
            <mxPoint x="237" y="20" as="targetPoint" />
          </mxGeometry>
        </mxCell>
        <mxCell id="g07h73ZPgxgVqOZMdDho-86" style="edgeStyle=orthogonalEdgeStyle;rounded=0;orthogonalLoop=1;jettySize=auto;html=1;exitX=0.25;exitY=1;exitDx=0;exitDy=0;entryX=0.25;entryY=0;entryDx=0;entryDy=0;curved=1;dashed=1;" edge="1" parent="1" source="g07h73ZPgxgVqOZMdDho-85" target="g07h73ZPgxgVqOZMdDho-59">
          <mxGeometry relative="1" as="geometry">
            <mxPoint x="362.4629629629628" y="50.925925925925924" as="targetPoint" />
          </mxGeometry>
        </mxCell>
        <mxCell id="g07h73ZPgxgVqOZMdDho-89" style="edgeStyle=orthogonalEdgeStyle;rounded=0;orthogonalLoop=1;jettySize=auto;html=1;exitX=0.75;exitY=1;exitDx=0;exitDy=0;entryX=0.75;entryY=0;entryDx=0;entryDy=0;curved=1;dashed=1;" edge="1" parent="1" source="g07h73ZPgxgVqOZMdDho-85" target="g07h73ZPgxgVqOZMdDho-71">
          <mxGeometry relative="1" as="geometry">
            <mxPoint x="650" y="90" as="targetPoint" />
            <Array as="points">
              <mxPoint x="440" />
              <mxPoint x="440" y="30" />
              <mxPoint x="653" y="30" />
            </Array>
          </mxGeometry>
        </mxCell>
        <mxCell id="g07h73ZPgxgVqOZMdDho-85" value="&lt;font style=&quot;font-size: 15px;&quot;&gt;&lt;b&gt;Cloud Request&lt;/b&gt;&lt;/font&gt;" style="rounded=0;whiteSpace=wrap;html=1;" vertex="1" parent="1">
          <mxGeometry x="357.5" y="-30" width="115" height="30" as="geometry" />
        </mxCell>
        <mxCell id="g07h73ZPgxgVqOZMdDho-88" value="" style="endArrow=classic;html=1;rounded=0;edgeStyle=orthogonalEdgeStyle;curved=1;dashed=1;" edge="1" parent="1">
          <mxGeometry width="50" height="50" relative="1" as="geometry">
            <mxPoint x="460" y="140" as="sourcePoint" />
            <mxPoint x="630" y="90" as="targetPoint" />
            <Array as="points">
              <mxPoint x="460" y="50" />
              <mxPoint x="630" y="50" />
            </Array>
          </mxGeometry>
        </mxCell>
        <mxCell id="g07h73ZPgxgVqOZMdDho-94" value="" style="shape=note2;boundedLbl=1;whiteSpace=wrap;html=1;size=16;verticalAlign=top;align=center;" vertex="1" parent="1">
          <mxGeometry x="-25" y="-50" width="80" height="50" as="geometry" />
        </mxCell>
        <mxCell id="g07h73ZPgxgVqOZMdDho-95" value="Active&#xa;object" style="resizeWidth=1;part=1;strokeColor=none;fillColor=none;align=center;spacingLeft=5;verticalAlign=middle;fontSize=15;fontStyle=1" vertex="1" parent="g07h73ZPgxgVqOZMdDho-94">
          <mxGeometry width="60" height="50" relative="1" as="geometry" />
        </mxCell>
        <mxCell id="g07h73ZPgxgVqOZMdDho-96" style="edgeStyle=orthogonalEdgeStyle;rounded=0;orthogonalLoop=1;jettySize=auto;html=1;exitX=0.5;exitY=1;exitDx=0;exitDy=0;entryX=0.136;entryY=-0.006;entryDx=0;entryDy=0;entryPerimeter=0;endArrow=oval;endFill=0;dashed=1;" edge="1" parent="1" source="g07h73ZPgxgVqOZMdDho-95" target="g07h73ZPgxgVqOZMdDho-12">
          <mxGeometry relative="1" as="geometry" />
        </mxCell>
        <mxCell id="g07h73ZPgxgVqOZMdDho-100" value="" style="rounded=0;orthogonalLoop=1;jettySize=auto;html=1;endArrow=oval;endFill=0;entryX=0.885;entryY=0.008;entryDx=0;entryDy=0;entryPerimeter=0;dashed=1;dashPattern=8 8;" edge="1" parent="1" source="g07h73ZPgxgVqOZMdDho-97" target="g07h73ZPgxgVqOZMdDho-71">
          <mxGeometry relative="1" as="geometry" />
        </mxCell>
        <mxCell id="g07h73ZPgxgVqOZMdDho-97" value="" style="shape=note2;boundedLbl=1;whiteSpace=wrap;html=1;size=16;verticalAlign=top;align=center;" vertex="1" parent="1">
          <mxGeometry x="619" y="-50" width="80" height="50" as="geometry" />
        </mxCell>
        <mxCell id="g07h73ZPgxgVqOZMdDho-98" value="Event&#xa;queue" style="resizeWidth=1;part=1;strokeColor=none;fillColor=none;align=center;spacingLeft=5;verticalAlign=middle;fontSize=15;fontStyle=1" vertex="1" parent="g07h73ZPgxgVqOZMdDho-97">
          <mxGeometry width="60" height="50" relative="1" as="geometry" />
        </mxCell>
        <mxCell id="g07h73ZPgxgVqOZMdDho-101" value="" style="shape=note2;boundedLbl=1;whiteSpace=wrap;html=1;size=16;verticalAlign=top;align=center;" vertex="1" parent="1">
          <mxGeometry x="690" y="20" width="110" height="50" as="geometry" />
        </mxCell>
        <mxCell id="g07h73ZPgxgVqOZMdDho-102" value="Internal&#xa;state machine" style="resizeWidth=1;part=1;strokeColor=none;fillColor=none;align=center;spacingLeft=5;verticalAlign=middle;fontSize=15;fontStyle=1" vertex="1" parent="g07h73ZPgxgVqOZMdDho-101">
          <mxGeometry width="100" height="50" relative="1" as="geometry" />
        </mxCell>
        <mxCell id="g07h73ZPgxgVqOZMdDho-103" style="rounded=0;orthogonalLoop=1;jettySize=auto;html=1;exitX=0.5;exitY=1;exitDx=0;exitDy=0;entryX=0.75;entryY=0;entryDx=0;entryDy=0;endArrow=oval;endFill=0;dashed=1;dashPattern=8 8;" edge="1" parent="1" source="g07h73ZPgxgVqOZMdDho-102" target="g07h73ZPgxgVqOZMdDho-26">
          <mxGeometry relative="1" as="geometry" />
        </mxCell>
        <mxCell id="g07h73ZPgxgVqOZMdDho-104" value="&lt;font style=&quot;font-size: 22px;&quot;&gt;A&lt;/font&gt;" style="text;html=1;align=center;verticalAlign=middle;whiteSpace=wrap;rounded=0;" vertex="1" parent="1">
          <mxGeometry x="-53" y="380" width="60" height="30" as="geometry" />
        </mxCell>
        <mxCell id="g07h73ZPgxgVqOZMdDho-105" value="" style="rounded=0;whiteSpace=wrap;html=1;" vertex="1" parent="1">
          <mxGeometry x="850" y="150" width="140" height="210" as="geometry" />
        </mxCell>
        <mxCell id="g07h73ZPgxgVqOZMdDho-108" value="" style="edgeStyle=orthogonalEdgeStyle;rounded=0;orthogonalLoop=1;jettySize=auto;html=1;endArrow=open;endFill=0;" edge="1" parent="1" source="g07h73ZPgxgVqOZMdDho-106" target="g07h73ZPgxgVqOZMdDho-107">
          <mxGeometry relative="1" as="geometry" />
        </mxCell>
        <mxCell id="g07h73ZPgxgVqOZMdDho-106" value="&lt;font style=&quot;font-size: 15px;&quot;&gt;&lt;b&gt;e = queue.get();&lt;/b&gt;&lt;/font&gt;" style="rounded=0;whiteSpace=wrap;html=1;" vertex="1" parent="1">
          <mxGeometry x="930" y="186" width="120" height="40" as="geometry" />
        </mxCell>
        <mxCell id="g07h73ZPgxgVqOZMdDho-107" value="&lt;font style=&quot;font-size: 15px;&quot;&gt;&lt;b&gt;dispatch(e);&lt;/b&gt;&lt;/font&gt;" style="rounded=0;whiteSpace=wrap;html=1;" vertex="1" parent="1">
          <mxGeometry x="930" y="280" width="120" height="40" as="geometry" />
        </mxCell>
        <mxCell id="g07h73ZPgxgVqOZMdDho-109" value="" style="endArrow=oval;html=1;rounded=0;exitX=1.007;exitY=0.582;exitDx=0;exitDy=0;exitPerimeter=0;startArrow=oval;startFill=0;endFill=0;dashed=1;dashPattern=8 8;" edge="1" parent="1" source="g07h73ZPgxgVqOZMdDho-32">
          <mxGeometry width="50" height="50" relative="1" as="geometry">
            <mxPoint x="770" y="380" as="sourcePoint" />
            <mxPoint x="849" y="337" as="targetPoint" />
          </mxGeometry>
        </mxCell>
        <mxCell id="g07h73ZPgxgVqOZMdDho-110" value="" style="endArrow=open;html=1;rounded=0;exitX=-0.002;exitY=0.87;exitDx=0;exitDy=0;exitPerimeter=0;entryX=-0.001;entryY=0.55;entryDx=0;entryDy=0;entryPerimeter=0;endFill=0;" edge="1" parent="1" source="g07h73ZPgxgVqOZMdDho-105" target="g07h73ZPgxgVqOZMdDho-105">
          <mxGeometry width="50" height="50" relative="1" as="geometry">
            <mxPoint x="820" y="290" as="sourcePoint" />
            <mxPoint x="870" y="240" as="targetPoint" />
          </mxGeometry>
        </mxCell>
        <mxCell id="g07h73ZPgxgVqOZMdDho-113" value="" style="rounded=0;orthogonalLoop=1;jettySize=auto;html=1;exitX=0.25;exitY=1;exitDx=0;exitDy=0;endArrow=oval;endFill=0;dashed=1;dashPattern=8 8;entryX=0.25;entryY=0;entryDx=0;entryDy=0;" edge="1" parent="1" source="g07h73ZPgxgVqOZMdDho-112" target="g07h73ZPgxgVqOZMdDho-105">
          <mxGeometry relative="1" as="geometry">
            <mxPoint x="884" y="110" as="targetPoint" />
          </mxGeometry>
        </mxCell>
        <mxCell id="g07h73ZPgxgVqOZMdDho-111" value="" style="shape=note2;boundedLbl=1;whiteSpace=wrap;html=1;size=16;verticalAlign=top;align=center;" vertex="1" parent="1">
          <mxGeometry x="860" y="-50" width="130" height="50" as="geometry" />
        </mxCell>
        <mxCell id="g07h73ZPgxgVqOZMdDho-112" value="Active object&#39;t&#xa;event loop" style="resizeWidth=1;part=1;strokeColor=none;fillColor=none;align=center;spacingLeft=5;verticalAlign=middle;fontSize=15;fontStyle=1" vertex="1" parent="g07h73ZPgxgVqOZMdDho-111">
          <mxGeometry width="97.5" height="50" relative="1" as="geometry" />
        </mxCell>
        <mxCell id="g07h73ZPgxgVqOZMdDho-115" value="" style="shape=note2;boundedLbl=1;whiteSpace=wrap;html=1;size=16;verticalAlign=top;align=center;" vertex="1" parent="1">
          <mxGeometry x="940" y="30" width="110" height="50" as="geometry" />
        </mxCell>
        <mxCell id="g07h73ZPgxgVqOZMdDho-116" value="Blocking&#xa;operation" style="resizeWidth=1;part=1;strokeColor=none;fillColor=none;align=center;spacingLeft=5;verticalAlign=middle;fontSize=15;fontStyle=1" vertex="1" parent="g07h73ZPgxgVqOZMdDho-115">
          <mxGeometry width="100" height="50" relative="1" as="geometry" />
        </mxCell>
        <mxCell id="g07h73ZPgxgVqOZMdDho-120" value="" style="edgeStyle=orthogonalEdgeStyle;rounded=0;orthogonalLoop=1;jettySize=auto;html=1;endArrow=open;endFill=0;" edge="1" parent="1" source="g07h73ZPgxgVqOZMdDho-118" target="g07h73ZPgxgVqOZMdDho-106">
          <mxGeometry relative="1" as="geometry" />
        </mxCell>
        <mxCell id="g07h73ZPgxgVqOZMdDho-118" value="" style="shape=note2;boundedLbl=1;whiteSpace=wrap;html=1;size=16;verticalAlign=top;align=center;" vertex="1" parent="1">
          <mxGeometry x="950" y="99.52" width="80" height="30" as="geometry" />
        </mxCell>
        <mxCell id="g07h73ZPgxgVqOZMdDho-119" value="Init();" style="resizeWidth=1;part=1;strokeColor=none;fillColor=none;align=center;spacingLeft=5;verticalAlign=middle;fontSize=15;fontStyle=1" vertex="1" parent="g07h73ZPgxgVqOZMdDho-118">
          <mxGeometry width="60" height="30" relative="1" as="geometry" />
        </mxCell>
        <mxCell id="g07h73ZPgxgVqOZMdDho-121" value="" style="endArrow=oval;html=1;rounded=0;entryX=0.902;entryY=0.032;entryDx=0;entryDy=0;endFill=0;dashed=1;dashPattern=8 8;entryPerimeter=0;" edge="1" parent="1" target="g07h73ZPgxgVqOZMdDho-106">
          <mxGeometry width="50" height="50" relative="1" as="geometry">
            <mxPoint x="1040" y="80" as="sourcePoint" />
            <mxPoint x="1039" y="170" as="targetPoint" />
          </mxGeometry>
        </mxCell>
        <mxCell id="g07h73ZPgxgVqOZMdDho-122" value="&lt;span style=&quot;font-size: 22px;&quot;&gt;B&lt;/span&gt;" style="text;html=1;align=center;verticalAlign=middle;whiteSpace=wrap;rounded=0;" vertex="1" parent="1">
          <mxGeometry x="820" y="380" width="60" height="30" as="geometry" />
        </mxCell>
        <mxCell id="g07h73ZPgxgVqOZMdDho-123" value="&lt;font style=&quot;font-size: 25px;&quot;&gt;&lt;b&gt;(A) &lt;/b&gt;Active-object system&lt;b&gt;&amp;nbsp;(B) &lt;/b&gt;Active object&#39;s event loop&lt;/font&gt;" style="text;html=1;align=center;verticalAlign=middle;whiteSpace=wrap;rounded=0;" vertex="1" parent="1">
          <mxGeometry x="122.5" y="410" width="770" height="30" as="geometry" />
        </mxCell>
        <mxCell id="g07h73ZPgxgVqOZMdDho-129" value="&lt;span&gt;&lt;b&gt;Active Kernel - How it work ?&lt;/b&gt;&lt;/span&gt;" style="text;html=1;align=left;verticalAlign=middle;whiteSpace=wrap;rounded=0;fontSize=31;" vertex="1" parent="1">
          <mxGeometry x="-25" y="-126" width="615" height="30" as="geometry" />
        </mxCell>
      </root>
    </mxGraphModel>
  </diagram>
</mxfile>
